<svg width="57" height="70" viewBox="0 0 57 70" fill="none" xmlns="http://www.w3.org/2000/svg">
<path d="M54.0161 0.00390625V19.1189H22.0361C21.6501 19.1146 21.267 19.1867 20.9089 19.3313C20.5509 19.4758 20.225 19.6898 19.9501 19.9609C19.7265 20.1823 19.544 20.4416 19.4111 20.7269C19.7085 15.8848 21.5433 11.264 24.6486 7.53685C27.7538 3.80969 31.9674 1.1707 36.6761 0.00390625H54.0161Z" fill="url(#paint0_linear_1_89)"/>
<path d="M37.2604 48.2129C36.9966 53.0793 35.1809 57.7332 32.0794 61.4926C28.978 65.2519 24.754 67.919 20.0264 69.1029H3.48242V49.9919H34.5444C34.9396 49.9971 35.3319 49.9222 35.6974 49.7719C36.047 49.6293 36.3643 49.4178 36.6304 49.1499C36.898 48.8804 37.1118 48.5624 37.2604 48.2129Z" fill="url(#paint1_linear_1_89)"/>
<path d="M56.5882 47.064C56.6019 50.012 56.0132 52.9317 54.8582 55.644C54.6232 56.19 54.3652 56.728 54.0852 57.252C54.0772 57.274 54.0692 57.282 54.0692 57.297C54.0666 57.3083 54.0614 57.3189 54.0542 57.328C51.6782 61.8197 47.8296 65.3576 43.1542 67.348C40.4359 68.52 37.5043 69.1165 34.5442 69.1H20.0332L20.2002 69.055C24.8884 67.8415 29.0687 65.1674 32.1358 61.4198C35.203 57.6722 36.9977 53.0456 37.2602 48.21V48.202C37.5376 47.4803 37.5429 46.6823 37.2752 45.957C37.2682 45.942 37.2602 45.919 37.2522 45.904C37.1079 45.5553 36.8966 45.2383 36.6302 44.971C36.3573 44.6977 36.0316 44.4827 35.673 44.3392C35.3144 44.1956 34.9303 44.1265 34.5442 44.136H22.0362C21.4142 44.136 20.7922 44.114 20.1772 44.053C20.1552 44.053 20.1322 44.045 20.1022 44.045C17.8046 43.8631 15.5534 43.2994 13.4412 42.377C8.18555 40.1146 4.00064 35.9186 1.7522 30.657C1.45612 29.9791 1.19774 29.2854 0.978211 28.579C0.321895 26.4641 -0.0078969 24.2614 0.000213764 22.047C-0.012966 19.0923 0.583444 16.1667 1.7522 13.453C4.01369 8.2075 8.19568 4.02551 13.4412 1.76402C14.9722 1.0937 16.58 0.614748 18.2282 0.338016C18.2892 0.322016 18.3342 0.31501 18.3642 0.30701C18.3793 0.303174 18.3947 0.300826 18.4102 0.300007C19.6084 0.099632 20.8213 -0.000717133 22.0362 3.85747e-06H36.6762C31.9674 1.1668 27.7538 3.80579 24.6486 7.53295C21.5434 11.2601 19.7086 15.8809 19.4112 20.723C19.3792 20.7792 19.3514 20.8377 19.3282 20.898C19.1784 21.2609 19.1036 21.6504 19.1082 22.043C19.1039 22.4541 19.181 22.8619 19.3352 23.243C19.3513 23.2854 19.3717 23.3259 19.3962 23.364C19.5269 23.6678 19.715 23.9435 19.9502 24.176C20.224 24.4486 20.5497 24.6635 20.908 24.8081C21.2663 24.9528 21.6499 25.0241 22.0362 25.018H34.5442C37.498 25.0023 40.4241 25.5882 43.1442 26.74C48.4329 28.9633 52.6399 33.1703 54.8632 38.459C55.157 39.1445 55.413 39.8455 55.6302 40.559C56.2726 42.6673 56.5955 44.86 56.5882 47.064Z" fill="url(#paint2_linear_1_89)"/>
<g style="mix-blend-mode:multiply" opacity="0.16">
<g style="mix-blend-mode:multiply" opacity="0.16">
<path d="M37.26 48.2129C36.9962 53.0793 35.1805 57.7332 32.0791 61.4926C28.9777 65.2519 24.7536 67.919 20.0261 69.1029H15.4141C19.2843 67.2816 22.7009 64.6221 25.4163 61.3173C28.1318 58.0124 30.078 54.1449 31.114 49.9949H34.5421C34.9373 50.0001 35.3295 49.9252 35.695 49.7749C36.0447 49.6323 36.362 49.4208 36.6281 49.1529C36.8967 48.8827 37.1112 48.5636 37.26 48.2129Z" fill="black"/>
</g>
</g>
<g style="mix-blend-mode:multiply" opacity="0.16">
<g style="mix-blend-mode:multiply" opacity="0.16">
<path d="M40.8331 0.00390625C36.5621 3.18191 27.8922 10.5169 25.7072 19.1189H22.0361C21.6501 19.1146 21.267 19.1867 20.9089 19.3313C20.5509 19.4758 20.225 19.6898 19.9501 19.9609C19.7265 20.1823 19.544 20.4416 19.4111 20.7269C19.7085 15.8848 21.5433 11.264 24.6486 7.53685C27.7538 3.80969 31.9674 1.1707 36.6761 0.00390625H40.8331Z" fill="black"/>
</g>
</g>
<g style="mix-blend-mode:multiply" opacity="0.25">
<g style="mix-blend-mode:multiply" opacity="0.25">
<path d="M54.0166 5.7229V19.1229H27.3086C29.5306 18.9029 31.7606 18.7519 33.9836 18.6449C36.2066 18.5379 38.4366 18.4449 40.6586 18.4099C42.8886 18.3419 45.1116 18.3499 47.3416 18.3269C49.3416 18.3499 51.3236 18.3499 53.3196 18.3949C53.3416 17.5229 53.3576 16.6499 53.3946 15.7709C53.4326 14.6549 53.4706 13.5399 53.5396 12.4249C53.6496 10.1909 53.7966 7.9529 54.0166 5.7229Z" fill="black"/>
</g>
</g>
<g style="mix-blend-mode:screen" opacity="0.7">
<g style="mix-blend-mode:screen" opacity="0.7">
<path d="M56.5881 47.0641C56.6018 50.012 56.0131 52.9317 54.8581 55.6441C54.6231 56.1901 54.3651 56.7281 54.0851 57.2521C54.1611 57.0471 54.4111 56.394 54.7851 55.393C55.3644 53.6908 55.7436 51.927 55.9151 50.1371C56.0231 48.9516 56.0462 47.7598 55.9841 46.571C55.908 45.2564 55.7254 43.9501 55.4381 42.6651C55.2893 42.0005 55.1044 41.3445 54.8841 40.7001C54.6261 40.0331 54.3681 39.357 54.1101 38.682C53.5312 37.3547 52.8195 36.0893 51.9861 34.9051C51.1742 33.7051 50.2354 32.596 49.1861 31.597C48.1753 30.6275 47.0785 29.7519 45.9091 28.981C44.7999 28.2607 43.6357 27.6291 42.4271 27.0921C41.3385 26.6236 40.2151 26.2405 39.0671 25.946C37.3196 25.5127 35.5329 25.2561 33.7341 25.1801C32.4141 25.0801 31.6631 25.0211 31.6631 25.0211H34.5381C37.4919 25.0053 40.418 25.5912 43.1381 26.7431C48.4268 28.9664 52.6338 33.1734 54.8571 38.462C55.1509 39.1475 55.4069 39.8486 55.6241 40.5621C56.2682 42.6691 56.5931 44.8607 56.5881 47.0641Z" fill="white"/>
</g>
</g>
<g style="mix-blend-mode:multiply" opacity="0.25">
<g style="mix-blend-mode:multiply" opacity="0.25">
<path d="M17.6364 69.0999H3.48242V54.6499C3.65642 55.8559 3.7624 57.0499 3.8764 58.2609C3.9674 59.4669 4.0514 60.6729 4.1044 61.8709C4.1804 63.0769 4.19542 64.2839 4.24042 65.4899L4.27142 68.3109C5.18842 68.3259 6.10641 68.3259 7.02441 68.3489C8.20041 68.3949 9.37642 68.4099 10.5594 68.4859C12.9184 68.5999 15.2774 68.7739 17.6364 69.0999Z" fill="black"/>
</g>
</g>
<g style="mix-blend-mode:screen" opacity="0.7">
<g style="mix-blend-mode:screen" opacity="0.7">
<path d="M20.1022 44.0449C17.8046 43.863 15.5534 43.2992 13.4412 42.3769C8.18555 40.1145 4.00064 35.9185 1.7522 30.6569C1.45612 29.979 1.19774 29.2853 0.978211 28.5789C0.321895 26.464 -0.0078969 24.2613 0.000213764 22.0469C-0.012966 19.0922 0.583444 16.1666 1.7522 13.4529C4.01369 8.20737 8.19568 4.02538 13.4412 1.76389C14.9722 1.09357 16.58 0.614622 18.2282 0.33789C17.4014 0.536715 16.5859 0.779727 15.7852 1.06589C10.3533 3.00594 5.85914 6.93367 3.2092 12.0569C1.45677 15.4211 0.631857 19.1913 0.819214 22.9799C0.87798 24.8836 1.2076 26.7692 1.79819 28.5799C1.97219 29.0419 2.13921 29.5049 2.30621 29.9599L2.42722 30.3009L2.45819 30.3849C2.46518 30.3991 2.47024 30.4143 2.47321 30.4299L2.54919 30.5969L2.83719 31.2419C3.22026 32.0768 3.65858 32.8853 4.1492 33.6619C5.07932 35.1405 6.17653 36.5072 7.41919 37.7349C8.54709 38.8338 9.78188 39.8173 11.1052 40.6709C12.2349 41.3877 13.4196 42.014 14.6482 42.5439C15.6069 42.9516 16.5959 43.2839 17.6062 43.5379C18.4291 43.7488 19.2622 43.918 20.1022 44.0449Z" fill="white"/>
</g>
</g>
<g style="mix-blend-mode:screen" opacity="0.7">
<g style="mix-blend-mode:screen" opacity="0.7">
<path d="M36.6761 0.00390625C31.9674 1.1707 27.7538 3.80969 24.6486 7.53685C21.5433 11.264 19.7085 15.8848 19.4111 20.7269C19.3791 20.7831 19.3513 20.8416 19.3281 20.9019L19.3891 20.7119C19.3661 20.1119 19.3661 19.5059 19.3661 18.8989C19.4111 18.2929 19.4791 17.6859 19.5401 17.0709C19.6401 16.4709 19.7751 15.8709 19.8891 15.2709C20.0411 14.6709 20.2461 14.0949 20.4201 13.4959C20.6201 12.9119 20.8681 12.3499 21.1101 11.7739C21.3681 11.2129 21.6721 10.6739 21.9451 10.1199C22.2631 9.58191 22.6121 9.0739 22.9451 8.5429C23.3091 8.0429 23.6881 7.5489 24.0681 7.0629C24.4771 6.5929 24.9101 6.1459 25.3271 5.6899C25.7821 5.2659 26.2271 4.8409 26.7001 4.4309L28.1791 3.30091C28.6951 2.95991 29.2181 2.6409 29.7491 2.3149C30.3031 2.0419 30.8421 1.74591 31.3951 1.47991L33.1101 0.812896C33.7101 0.637896 34.2931 0.463896 34.8851 0.312896C35.4771 0.192896 36.0771 0.0949062 36.6761 0.00390625Z" fill="white"/>
</g>
</g>
<g style="mix-blend-mode:screen" opacity="0.7">
<g style="mix-blend-mode:screen" opacity="0.7">
<path d="M37.3974 48.202C37.4044 48.824 37.4044 49.431 37.3894 50.045C37.3514 50.66 37.2754 51.267 37.2074 51.881C37.1014 52.4877 36.9801 53.0947 36.8434 53.702C36.6914 54.302 36.4944 54.893 36.3194 55.484C36.1194 56.076 35.8574 56.637 35.6194 57.214C35.3624 57.783 35.0664 58.329 34.7774 58.883C34.4664 59.421 34.1184 59.937 33.7844 60.468C33.4204 60.976 33.0404 61.468 32.6614 61.962C32.2524 62.433 31.8194 62.888 31.4024 63.35C30.9474 63.783 30.5024 64.208 30.0294 64.625L28.5494 65.763C28.0334 66.1043 27.5101 66.4376 26.9794 66.763L25.3334 67.62L23.6114 68.31L21.8434 68.826C21.3884 68.917 20.9434 69.008 20.4934 69.084L20.5934 69.099L20.0694 69.16C20.0624 69.168 20.0464 69.168 20.0394 69.168L20.0314 69.099L20.0244 69.031L20.1984 69.054C24.8866 67.8405 29.0669 65.1664 32.1341 61.4187C35.2012 57.6711 36.9959 53.0446 37.2584 48.209V48.201C37.4056 47.84 37.4778 47.4528 37.4704 47.063C37.5254 47.4436 37.5005 47.8315 37.3974 48.202Z" fill="white"/>
</g>
</g>
<defs>
<linearGradient id="paint0_linear_1_89" x1="54.0161" y1="10.3654" x2="20.8299" y2="10.3654" gradientUnits="userSpaceOnUse">
<stop stop-color="#0957EE"/>
<stop offset="0.322" stop-color="#25A9F3"/>
<stop offset="1" stop-color="#00FFD1"/>
</linearGradient>
<linearGradient id="paint1_linear_1_89" x1="2.16508" y1="58.6579" x2="34.0515" y2="58.6579" gradientUnits="userSpaceOnUse">
<stop stop-color="#0957EE"/>
<stop offset="0.322" stop-color="#25A9F3"/>
<stop offset="1" stop-color="#00FFD1"/>
</linearGradient>
<linearGradient id="paint2_linear_1_89" x1="28" y1="-9.50092e-09" x2="28.2942" y2="70.966" gradientUnits="userSpaceOnUse">
<stop stop-color="#00A3FF"/>
<stop offset="0.0833333" stop-color="#00C2FF"/>
<stop offset="0.162" stop-color="#00A3FF"/>
<stop offset="0.307" stop-color="#0094FF"/>
<stop offset="0.446" stop-color="#0085FF"/>
<stop offset="0.581" stop-color="#0066FF"/>
<stop offset="0.712" stop-color="#0047FF"/>
<stop offset="0.842" stop-color="#0029FF"/>
<stop offset="0.967" stop-color="#000AFF"/>
<stop offset="1" stop-color="#0500FF"/>
</linearGradient>
</defs>
</svg>
