<?xml version="1.0" encoding="iso-8859-1"?>
<!-- Generator: Adobe Illustrator 19.0.0, SVG Export Plug-In . SVG Version: 6.00 Build 0)  -->
<svg version="1.1" id="Layer_1" xmlns="http://www.w3.org/2000/svg" xmlns:xlink="http://www.w3.org/1999/xlink" x="0px" y="0px"
	 viewBox="0 0 512 512" style="enable-background:new 0 0 512 512;" xml:space="preserve">
<g>
	<polygon style="fill:#CFD2CF;" points="315.734,153.6 309.061,225.05 375.467,256 309.334,286.481 315.734,358.4 256.001,315.733 
		196.267,358.4 203.41,288 136.423,256 202.667,225.519 196.267,153.6 256.001,196.267 	"/>
	<g>
		<path style="fill:#E4E5E6;" d="M281.601,256c0-14.14-11.46-25.6-25.6-25.6c-14.14,0-25.6,11.46-25.6,25.6
			c0,14.14,11.46,25.6,25.6,25.6C270.14,281.6,281.601,270.14,281.601,256"/>
		<path style="fill:#E4E5E6;" d="M256.001,238.933c-4.719,0-8.533-3.814-8.533-8.533V8.533c0-4.719,3.814-8.533,8.533-8.533
			s8.533,3.814,8.533,8.533V230.4C264.534,235.119,260.719,238.933,256.001,238.933"/>
		<path style="fill:#E4E5E6;" d="M256.001,59.733c-2.185,0-4.369-0.836-6.033-2.5l-25.6-25.6c-3.337-3.337-3.337-8.73,0-12.066
			s8.73-3.337,12.066,0l19.567,19.567l19.567-19.567c3.337-3.337,8.73-3.337,12.066,0c3.337,3.337,3.337,8.73,0,12.066l-25.6,25.6
			C260.37,58.897,258.185,59.733,256.001,59.733"/>
		<path style="fill:#E4E5E6;" d="M256.001,145.067c-2.185,0-4.369-0.836-6.033-2.5L207.301,99.9c-3.337-3.337-3.337-8.73,0-12.066
			c3.337-3.337,8.73-3.337,12.066,0l36.634,36.634l36.634-36.634c3.337-3.337,8.73-3.337,12.066,0c3.337,3.337,3.337,8.73,0,12.066
			l-42.667,42.667C260.37,144.23,258.185,145.067,256.001,145.067"/>
		<path style="fill:#E4E5E6;" d="M273.067,85.333h-34.133c-4.719,0-8.533-3.814-8.533-8.533c0-4.719,3.814-8.533,8.533-8.533h34.133
			c4.719,0,8.533,3.814,8.533,8.533C281.601,81.519,277.786,85.333,273.067,85.333"/>
		<path style="fill:#E4E5E6;" d="M256.001,512c-4.719,0-8.533-3.814-8.533-8.533V281.6c0-4.719,3.814-8.533,8.533-8.533
			s8.533,3.814,8.533,8.533v221.867C264.534,508.186,260.719,512,256.001,512"/>
		<path style="fill:#E4E5E6;" d="M281.601,494.933c-2.185,0-4.369-0.836-6.033-2.5l-19.567-19.567l-19.567,19.567
			c-3.337,3.337-8.73,3.337-12.066,0s-3.337-8.73,0-12.066l25.6-25.6c3.337-3.337,8.73-3.337,12.066,0l25.6,25.6
			c3.337,3.337,3.337,8.73,0,12.066C285.97,494.097,283.785,494.933,281.601,494.933"/>
		<path style="fill:#E4E5E6;" d="M298.667,426.667c-2.185,0-4.369-0.836-6.033-2.5l-36.634-36.634l-36.634,36.634
			c-3.337,3.337-8.73,3.337-12.066,0c-3.337-3.337-3.337-8.73,0-12.066l42.667-42.667c3.337-3.337,8.73-3.337,12.066,0L304.7,412.1
			c3.337,3.337,3.337,8.73,0,12.066C303.036,425.83,300.852,426.667,298.667,426.667"/>
		<path style="fill:#E4E5E6;" d="M273.067,443.733h-34.133c-4.719,0-8.533-3.814-8.533-8.533c0-4.719,3.814-8.533,8.533-8.533
			h34.133c4.719,0,8.533,3.814,8.533,8.533C281.601,439.919,277.786,443.733,273.067,443.733"/>
		<path style="fill:#E4E5E6;" d="M277.958,251.359c-2.901,0-5.726-1.476-7.322-4.139c-2.432-4.045-1.118-9.284,2.918-11.708
			L463.806,121.37c4.053-2.441,9.284-1.109,11.708,2.918c2.432,4.045,1.118,9.284-2.918,11.708L282.345,250.138
			C280.971,250.966,279.452,251.359,277.958,251.359"/>
		<path style="fill:#E4E5E6;" d="M466.742,167.942c-0.683,0-1.382-0.085-2.074-0.256l-35.115-8.781
			c-4.429-1.092-7.194-5.478-6.306-9.95l8.866-35.516c1.143-4.574,5.76-7.373,10.342-6.204c4.574,1.143,7.364,5.777,6.212,10.342
			l-6.707,26.846l26.837,6.707c4.574,1.143,7.364,5.777,6.212,10.342C474.038,165.356,470.565,167.942,466.742,167.942"/>
		<path style="fill:#E4E5E6;" d="M416.992,217.7c-0.683,0-1.382-0.085-2.074-0.256l-58.547-14.635
			c-4.489-1.118-7.262-5.606-6.263-10.129l14.694-58.743c1.135-4.591,5.76-7.398,10.342-6.212c4.574,1.143,7.356,5.777,6.204,10.342
			l-12.553,50.261l50.253,12.561c4.574,1.143,7.364,5.777,6.212,10.342C424.288,215.114,420.815,217.7,416.992,217.7"/>
		<path style="fill:#E4E5E6;" d="M418.45,186.967c-2.901,0-5.726-1.476-7.322-4.139l-17.562-29.269
			c-2.423-4.045-1.118-9.284,2.927-11.708c4.036-2.423,9.284-1.109,11.708,2.927l17.553,29.261
			c2.432,4.045,1.118,9.284-2.918,11.708C421.463,186.575,419.944,186.967,418.45,186.967"/>
		<path style="fill:#E4E5E6;" d="M43.809,391.85c-2.901,0-5.726-1.476-7.322-4.139c-2.432-4.045-1.118-9.284,2.918-11.708
			l190.251-114.142c4.062-2.432,9.284-1.118,11.708,2.918c2.432,4.045,1.118,9.284-2.918,11.708L48.195,390.63
			C46.821,391.457,45.302,391.85,43.809,391.85"/>
		<path style="fill:#E4E5E6;" d="M71.617,405.025c-0.683,0-1.382-0.085-2.074-0.256c-4.574-1.143-7.356-5.777-6.212-10.342
			l6.707-26.854l-26.837-6.707c-4.574-1.143-7.356-5.777-6.212-10.342c1.135-4.582,5.777-7.39,10.342-6.204l35.123,8.772
			c4.42,1.101,7.185,5.487,6.298,9.95l-8.866,35.516C78.913,402.44,75.44,405.025,71.617,405.025"/>
		<path style="fill:#E4E5E6;" d="M138.933,384.533c-0.683,0-1.382-0.085-2.074-0.256c-4.574-1.143-7.356-5.777-6.212-10.342
			l12.561-50.261l-50.261-12.561c-4.574-1.143-7.356-5.777-6.204-10.342c1.135-4.591,5.76-7.39,10.342-6.212l58.539,14.635
			c4.489,1.118,7.27,5.606,6.263,10.121l-14.686,58.752C146.229,381.948,142.756,384.533,138.933,384.533"/>
		<path style="fill:#E4E5E6;" d="M111.126,371.366c-2.901,0-5.726-1.476-7.322-4.139l-17.562-29.269
			c-2.423-4.045-1.118-9.284,2.927-11.708c4.045-2.423,9.284-1.109,11.708,2.927l17.553,29.261
			c2.432,4.045,1.118,9.284-2.918,11.708C114.138,370.974,112.619,371.366,111.126,371.366"/>
		<path style="fill:#E4E5E6;" d="M470.126,388.583c-1.451,0-2.927-0.367-4.267-1.152L273.876,276.216
			c-4.087-2.355-5.478-7.586-3.106-11.657c2.355-4.087,7.586-5.487,11.657-3.106l191.983,111.215
			c4.079,2.355,5.478,7.578,3.106,11.657C475.937,387.056,473.07,388.583,470.126,388.583"/>
		<path style="fill:#E4E5E6;" d="M442.517,402.184c-3.763,0-7.228-2.517-8.243-6.34l-9.318-34.995
			c-0.597-2.27-0.239-4.702,1.015-6.699c1.237-1.997,3.251-3.396,5.564-3.857l34.458-9.19c4.565-1.237,9.225,1.485,10.445,6.042
			c1.212,4.557-1.493,9.233-6.042,10.436l-26.743,7.125l7.125,26.752c1.203,4.548-1.502,9.225-6.059,10.445
			C443.985,402.09,443.251,402.184,442.517,402.184"/>
		<path style="fill:#E4E5E6;" d="M374.892,382.725c-3.763,0-7.228-2.517-8.243-6.34l-15.522-58.308
			c-0.589-2.244-0.247-4.634,0.956-6.63c1.212-1.98,3.174-3.388,5.444-3.9l57.958-15.437c4.548-1.178,9.225,1.493,10.445,6.05
			c1.212,4.557-1.493,9.233-6.05,10.445l-50.065,13.329l13.338,50.065c1.203,4.548-1.502,9.225-6.059,10.445
			C376.36,382.631,375.626,382.725,374.892,382.725"/>
		<path style="fill:#E4E5E6;" d="M402.492,369.133c-1.451,0-2.927-0.367-4.267-1.152c-4.087-2.364-5.478-7.578-3.106-11.656
			l17.118-29.542c2.355-4.087,7.586-5.487,11.657-3.106c4.079,2.364,5.47,7.586,3.106,11.657l-17.118,29.542
			C408.303,367.606,405.436,369.133,402.492,369.133"/>
		<path style="fill:#E4E5E6;" d="M233.842,251.7c-1.451,0-2.927-0.367-4.267-1.152L37.592,139.333
			c-4.087-2.355-5.478-7.586-3.106-11.657c2.364-4.087,7.586-5.487,11.657-3.106l191.983,111.215
			c4.079,2.355,5.478,7.578,3.106,11.657C239.653,250.173,236.786,251.7,233.842,251.7"/>
		<path style="fill:#E4E5E6;" d="M43.8,171.191c-3.763,0-7.219-2.517-8.235-6.332c-1.212-4.557,1.493-9.233,6.042-10.445
			l26.743-7.125l-7.125-26.752c-1.212-4.548,1.502-9.225,6.059-10.436c4.514-1.169,9.225,1.493,10.445,6.059l9.31,34.987
			c0.606,2.278,0.247,4.702-1.007,6.707c-1.237,1.997-3.26,3.396-5.564,3.857l-34.458,9.19
			C45.268,171.098,44.534,171.191,43.8,171.191"/>
		<path style="fill:#E4E5E6;" d="M94.309,220.175c-3.763,0-7.219-2.517-8.243-6.332c-1.203-4.557,1.502-9.233,6.05-10.453
			l50.065-13.321l-13.329-50.074c-1.212-4.548,1.502-9.225,6.059-10.436c4.514-1.169,9.225,1.493,10.436,6.059l15.531,58.308
			c0.589,2.244,0.247,4.634-0.964,6.622c-1.203,1.988-3.174,3.396-5.436,3.9l-57.958,15.445
			C95.777,220.082,95.043,220.175,94.309,220.175"/>
		<path style="fill:#E4E5E6;" d="M92.376,189.475c-1.451,0-2.927-0.367-4.267-1.152c-4.087-2.364-5.478-7.578-3.106-11.657
			l17.118-29.542c2.355-4.079,7.586-5.487,11.657-3.106c4.079,2.364,5.47,7.586,3.106,11.657l-17.118,29.542
			C98.187,187.948,95.32,189.475,92.376,189.475"/>
	</g>
</g>
<g>
</g>
<g>
</g>
<g>
</g>
<g>
</g>
<g>
</g>
<g>
</g>
<g>
</g>
<g>
</g>
<g>
</g>
<g>
</g>
<g>
</g>
<g>
</g>
<g>
</g>
<g>
</g>
<g>
</g>
</svg>
